<svg width="74" height="75" viewBox="0 0 74 75" fill="none" xmlns="http://www.w3.org/2000/svg">
<path d="M74 37.5C74 58.2107 57.4345 75 37 75C16.5655 75 0 58.2107 0 37.5C0 16.7893 16.5655 0 37 0C57.4345 0 74 16.7893 74 37.5ZM3.89551 37.5C3.89551 56.0302 18.7169 71.0518 37 71.0518C55.2831 71.0518 70.1045 56.0302 70.1045 37.5C70.1045 18.9698 55.2831 3.94815 37 3.94815C18.7169 3.94815 3.89551 18.9698 3.89551 37.5Z" fill="white"/>
<path d="M36 13.5C36 13.5 54 43 41.6292 53.25C29.2583 63.5 38.7417 67 30.3708 53.25C22 39.5 36 13.5 36 13.5Z" fill="white"/>
<path d="M36 13.5C36 13.5 54 43 41.6292 53.25C29.2583 63.5 38.7417 67 30.3708 53.25C22 39.5 36 13.5 36 13.5Z" fill="white"/>
<path d="M51.9047 29.5C51.9047 29.5 60.7083 45.9498 51.9047 52.8816C43.1011 59.8133 49.8498 62.1802 43.8928 52.8816C37.9358 43.5829 51.9047 29.5 51.9047 29.5Z" fill="white"/>
<path d="M51.9047 29.5C51.9047 29.5 60.7083 45.9498 51.9047 52.8816C43.1011 59.8133 49.8498 62.1802 43.8928 52.8816C37.9358 43.5829 51.9047 29.5 51.9047 29.5Z" fill="white"/>
<path d="M24.337 29.5C28.3429 40 38.1452 61.7632 28.3429 56.3816C18.5407 51 26.2881 65.6802 20.331 56.3816C14.374 47.0829 20.331 19 24.337 29.5Z" fill="white"/>
<path d="M24.337 29.5C28.3429 40 38.1452 61.7632 28.3429 56.3816C18.5407 51 26.2881 65.6802 20.331 56.3816C14.374 47.0829 20.331 19 24.337 29.5Z" fill="white"/>
<ellipse cx="36.5" cy="53.5" rx="13.5" ry="8.5" fill="white"/>
</svg>
