<svg width="74" height="75" viewBox="0 0 74 75" fill="none" xmlns="http://www.w3.org/2000/svg">
<path d="M74 37.5C74 58.2107 57.4345 75 37 75C16.5655 75 0 58.2107 0 37.5C0 16.7893 16.5655 0 37 0C57.4345 0 74 16.7893 74 37.5ZM3.89551 37.5C3.89551 56.0302 18.7169 71.0518 37 71.0518C55.2831 71.0518 70.1045 56.0302 70.1045 37.5C70.1045 18.9698 55.2831 3.94815 37 3.94815C18.7169 3.94815 3.89551 18.9698 3.89551 37.5Z" fill="white"/>
<path d="M37 15L57.7846 36H16.2154L37 15Z" fill="white" fill-opacity="0.99"/>
<rect x="24" y="37" width="27" height="19" fill="white"/>
</svg>
